<svg width="23" height="23" viewBox="0 0 23 23" fill="none" xmlns="http://www.w3.org/2000/svg">
<path d="M18.791 16.791H8.226V6.226H18.791M23.017 10.452V8.339H20.904V6.226C20.904 5.053 19.954 4.113 18.791 4.113H16.678V2H14.565V4.113H12.452V2H10.339V4.113H8.226C7.053 4.113 6.113 5.053 6.113 6.226V8.339H4V10.452H6.113V12.565H4V14.678H6.113V16.791C6.113 17.3514 6.33562 17.8889 6.73188 18.2851C7.12815 18.6814 7.6656 18.904 8.226 18.904H10.339V21.017H12.452V18.904H14.565V21.017H16.678V18.904H18.791C19.3514 18.904 19.8889 18.6814 20.2851 18.2851C20.6814 17.8889 20.904 17.3514 20.904 16.791V14.678H23.017V12.565H20.904V10.452M14.565 12.565H12.452V10.452H14.565M16.678 8.339H10.339V14.678H16.678V8.339Z" fill="#19BE97"/>
<path d="M20.352 8.376C21.456 8.376 22.104 8.68 22.296 9.288C22.392 9.592 22.44 9.992 22.44 10.488C22.44 10.984 22.384 11.384 22.272 11.688C22.176 11.976 22.016 12.184 21.792 12.312C21.456 12.504 20.968 12.6 20.328 12.6L18.792 12.504V18.936C18.792 19.544 18.712 20 18.552 20.304C18.408 20.592 18.176 20.784 17.856 20.88C17.552 20.976 17.152 21.024 16.656 21.024C16.16 21.024 15.76 20.976 15.456 20.88C15.168 20.768 14.96 20.6 14.832 20.376C14.704 20.136 14.624 19.92 14.592 19.728C14.576 19.536 14.568 19.256 14.568 18.888V12.528H13.704C13.288 12.496 12.992 12.4 12.816 12.24C12.512 11.936 12.36 11.352 12.36 10.488C12.36 9.176 12.832 8.52 13.776 8.52H14.568V7.248C14.568 6.016 15.008 4.904 15.888 3.912C16.768 2.904 18.04 2.4 19.704 2.4C20.072 2.4 20.344 2.416 20.52 2.448C20.712 2.464 20.928 2.536 21.168 2.664C21.6 2.872 21.816 3.488 21.816 4.512C21.816 5.28 21.68 5.832 21.408 6.168C21.184 6.424 20.832 6.568 20.352 6.6C20.208 6.6 19.984 6.6 19.68 6.6C19.088 6.6 18.792 6.8 18.792 7.2V8.52L20.352 8.376Z" fill="#BCFFEF" fill-opacity="0.8"/>
</svg>
