<svg width="23" height="23" viewBox="0 0 23 23" fill="none" xmlns="http://www.w3.org/2000/svg">
<path d="M16.791 16.791H6.226V6.226H16.791M21.017 10.452V8.339H18.904V6.226C18.904 5.053 17.954 4.113 16.791 4.113H14.678V2H12.565V4.113H10.452V2H8.339V4.113H6.226C5.053 4.113 4.113 5.053 4.113 6.226V8.339H2V10.452H4.113V12.565H2V14.678H4.113V16.791C4.113 17.3514 4.33562 17.8889 4.73188 18.2851C5.12815 18.6814 5.6656 18.904 6.226 18.904H8.339V21.017H10.452V18.904H12.565V21.017H14.678V18.904H16.791C17.3514 18.904 17.8889 18.6814 18.2851 18.2851C18.6814 17.8889 18.904 17.3514 18.904 16.791V14.678H21.017V12.565H18.904V10.452M12.565 12.565H10.452V10.452H12.565M14.678 8.339H8.339V14.678H14.678V8.339Z" fill="#19BE97"/>
<path d="M18.96 10.48C19.88 10.48 20.42 10.7333 20.58 11.24C20.66 11.4933 20.7 11.8267 20.7 12.24C20.7 12.6533 20.6533 12.9867 20.56 13.24C20.48 13.48 20.3467 13.6533 20.16 13.76C19.88 13.92 19.4733 14 18.94 14L17.66 13.92V19.28C17.66 19.7867 17.5933 20.1667 17.46 20.42C17.34 20.66 17.1467 20.82 16.88 20.9C16.6267 20.98 16.2933 21.02 15.88 21.02C15.4667 21.02 15.1333 20.98 14.88 20.9C14.64 20.8067 14.4667 20.6667 14.36 20.48C14.2533 20.28 14.1867 20.1 14.16 19.94C14.1467 19.78 14.14 19.5467 14.14 19.24V13.94H13.42C13.0733 13.9133 12.8267 13.8333 12.68 13.7C12.4267 13.4467 12.3 12.96 12.3 12.24C12.3 11.1467 12.6933 10.6 13.48 10.6H14.14V9.54C14.14 8.51333 14.5067 7.58667 15.24 6.76C15.9733 5.92 17.0333 5.5 18.42 5.5C18.7267 5.5 18.9533 5.51333 19.1 5.54C19.26 5.55333 19.44 5.61333 19.64 5.72C20 5.89333 20.18 6.40667 20.18 7.26C20.18 7.9 20.0667 8.36 19.84 8.64C19.6533 8.85333 19.36 8.97333 18.96 9C18.84 9 18.6533 9 18.4 9C17.9067 9 17.66 9.16667 17.66 9.5V10.6L18.96 10.48Z" fill="#BCFFEF" fill-opacity="0.8"/>
</svg>
