<svg width="23" height="23" viewBox="0 0 23 23" fill="none" xmlns="http://www.w3.org/2000/svg">
<path d="M16.791 16.791H6.226V6.226H16.791M21.017 10.452V8.339H18.904V6.226C18.904 5.053 17.954 4.113 16.791 4.113H14.678V2H12.565V4.113H10.452V2H8.339V4.113H6.226C5.053 4.113 4.113 5.053 4.113 6.226V8.339H2V10.452H4.113V12.565H2V14.678H4.113V16.791C4.113 17.3514 4.33562 17.8889 4.73188 18.2851C5.12815 18.6814 5.6656 18.904 6.226 18.904H8.339V21.017H10.452V18.904H12.565V21.017H14.678V18.904H16.791C17.3514 18.904 17.8889 18.6814 18.2851 18.2851C18.6814 17.8889 18.904 17.3514 18.904 16.791V14.678H21.017V12.565H18.904V10.452M12.565 12.565H10.452V10.452H12.565M14.678 8.339H8.339V14.678H14.678V8.339Z" fill="#6943FF"/>
</svg>
