<svg width="23" height="23" viewBox="0 0 23 23" fill="none" xmlns="http://www.w3.org/2000/svg">
<path d="M18.791 16.791H8.226V6.226H18.791M23.017 10.452V8.339H20.904V6.226C20.904 5.053 19.954 4.113 18.791 4.113H16.678V2H14.565V4.113H12.452V2H10.339V4.113H8.226C7.053 4.113 6.113 5.053 6.113 6.226V8.339H4V10.452H6.113V12.565H4V14.678H6.113V16.791C6.113 17.3514 6.33562 17.8889 6.73188 18.2851C7.12815 18.6814 7.6656 18.904 8.226 18.904H10.339V21.017H12.452V18.904H14.565V21.017H16.678V18.904H18.791C19.3514 18.904 19.8889 18.6814 20.2851 18.2851C20.6814 17.8889 20.904 17.3514 20.904 16.791V14.678H23.017V12.565H20.904V10.452M14.565 12.565H12.452V10.452H14.565M16.678 8.339H10.339V14.678H16.678V8.339Z" fill="#CE43FF"/>
</svg>
