<svg width="23" height="23" viewBox="0 0 23 23" fill="none" xmlns="http://www.w3.org/2000/svg">
<path d="M18.791 16.791H8.226V6.226H18.791M23.017 10.452V8.339H20.904V6.226C20.904 5.053 19.954 4.113 18.791 4.113H16.678V2H14.565V4.113H12.452V2H10.339V4.113H8.226C7.053 4.113 6.113 5.053 6.113 6.226V8.339H4V10.452H6.113V12.565H4V14.678H6.113V16.791C6.113 17.3514 6.33562 17.8889 6.73188 18.2851C7.12815 18.6814 7.6656 18.904 8.226 18.904H10.339V21.017H12.452V18.904H14.565V21.017H16.678V18.904H18.791C19.3514 18.904 19.8889 18.6814 20.2851 18.2851C20.6814 17.8889 20.904 17.3514 20.904 16.791V14.678H23.017V12.565H20.904V10.452M14.565 12.565H12.452V10.452H14.565M16.678 8.339H10.339V14.678H16.678V8.339Z" fill="#438EFF"/>
<path d="M18.64 10.5C19.9733 10.5 21.08 11.0067 21.96 12.02C22.8533 13.0333 23.3 14.2733 23.3 15.74V19.26C23.3 19.5667 23.2867 19.8 23.26 19.96C23.2467 20.1067 23.1867 20.28 23.08 20.48C22.9067 20.8267 22.3933 21 21.54 21C20.7267 21 20.22 20.8267 20.02 20.48C19.9133 20.28 19.8467 20.1 19.82 19.94C19.8067 19.78 19.8 19.54 19.8 19.22V15.72C19.8 15.1733 19.6467 14.7467 19.34 14.44C19.0333 14.1333 18.64 13.98 18.16 13.98C17.6933 13.98 17.28 14.1267 16.92 14.42C16.56 14.7 16.3533 15.02 16.3 15.38V19.26C16.3 19.5667 16.2867 19.8 16.26 19.96C16.2467 20.1067 16.1867 20.28 16.08 20.48C15.9067 20.8267 15.3933 21 14.54 21C13.7 21 13.1867 20.82 13 20.46C12.9067 20.26 12.8467 20.0867 12.82 19.94C12.8067 19.7933 12.8 19.56 12.8 19.24V7.28C12.8 6.97333 12.8067 6.74667 12.82 6.6C12.8467 6.44 12.9067 6.26667 13 6.08C13.1867 5.72 13.7067 5.54 14.56 5.54C15.4 5.54 15.9067 5.72 16.08 6.08C16.1867 6.28 16.2467 6.46 16.26 6.62C16.2867 6.76667 16.3 6.99333 16.3 7.3V11.72C16.9667 10.9067 17.7467 10.5 18.64 10.5Z" fill="#B0CFFE" fill-opacity="0.8"/>
</svg>
