<svg width="23" height="23" viewBox="0 0 23 23" fill="none" xmlns="http://www.w3.org/2000/svg">
<path d="M16.791 16.791H6.226V6.226H16.791M21.017 10.452V8.339H18.904V6.226C18.904 5.053 17.954 4.113 16.791 4.113H14.678V2H12.565V4.113H10.452V2H8.339V4.113H6.226C5.053 4.113 4.113 5.053 4.113 6.226V8.339H2V10.452H4.113V12.565H2V14.678H4.113V16.791C4.113 17.3514 4.33562 17.8889 4.73188 18.2851C5.12815 18.6814 5.6656 18.904 6.226 18.904H8.339V21.017H10.452V18.904H12.565V21.017H14.678V18.904H16.791C17.3514 18.904 17.8889 18.6814 18.2851 18.2851C18.6814 17.8889 18.904 17.3514 18.904 16.791V14.678H21.017V12.565H18.904V10.452M12.565 12.565H10.452V10.452H12.565M14.678 8.339H8.339V14.678H14.678V8.339Z" fill="#438EFF"/>
<path d="M16.64 10.5C17.9733 10.5 19.08 11.0067 19.96 12.02C20.8533 13.0333 21.3 14.2733 21.3 15.74V19.26C21.3 19.5667 21.2867 19.8 21.26 19.96C21.2467 20.1067 21.1867 20.28 21.08 20.48C20.9067 20.8267 20.3933 21 19.54 21C18.7267 21 18.22 20.8267 18.02 20.48C17.9133 20.28 17.8467 20.1 17.82 19.94C17.8067 19.78 17.8 19.54 17.8 19.22V15.72C17.8 15.1733 17.6467 14.7467 17.34 14.44C17.0333 14.1333 16.64 13.98 16.16 13.98C15.6933 13.98 15.28 14.1267 14.92 14.42C14.56 14.7 14.3533 15.02 14.3 15.38V19.26C14.3 19.5667 14.2867 19.8 14.26 19.96C14.2467 20.1067 14.1867 20.28 14.08 20.48C13.9067 20.8267 13.3933 21 12.54 21C11.7 21 11.1867 20.82 11 20.46C10.9067 20.26 10.8467 20.0867 10.82 19.94C10.8067 19.7933 10.8 19.56 10.8 19.24V7.28C10.8 6.97333 10.8067 6.74667 10.82 6.6C10.8467 6.44 10.9067 6.26667 11 6.08C11.1867 5.72 11.7067 5.54 12.56 5.54C13.4 5.54 13.9067 5.72 14.08 6.08C14.1867 6.28 14.2467 6.46 14.26 6.62C14.2867 6.76667 14.3 6.99333 14.3 7.3V11.72C14.9667 10.9067 15.7467 10.5 16.64 10.5Z" fill="#324D77" fill-opacity="0.8"/>
</svg>
